# Blender v2.77 (sub 0) OBJ File: ''
# www.blender.org
mtllib thing1obj.mtl
o Cube
v 1.000000 -1.000000 -1.000000
v 1.000000 -1.000000 1.000000
v -1.000000 -1.000000 1.000000
v -1.000000 -1.000000 -1.000000
v 1.000000 1.000000 -0.999999
v 0.999999 1.000000 1.000001
v -1.000000 1.000000 1.000000
v -1.000000 1.000000 -1.000000
v 2.876869 -1.000000 -0.999999
v 2.876869 -1.000000 1.000000
v 4.043266 0.920982 -3.543396
v 4.043265 0.920982 -1.543395
v 1.000000 2.104628 -0.999999
v 0.999999 2.104628 1.000001
v 4.043266 2.025610 -3.543396
v 4.043265 2.025610 -1.543395
vn 0.0000 -1.0000 0.0000
vn 0.0000 1.0000 0.0000
vn 0.6413 0.0000 0.7673
vn 0.0000 -0.0000 1.0000
vn -1.0000 -0.0000 -0.0000
vn 0.0000 0.0000 -1.0000
vn 0.8548 -0.5190 0.0000
vn 0.5553 0.5211 0.6482
vn 0.0260 0.9997 0.0000
vn -0.6413 -0.0000 -0.7673
vn 1.0000 0.0000 0.0000
vn -0.5553 -0.5211 -0.6482
usemtl Material
s off
f 2//1 4//1 1//1
f 8//2 6//2 5//2
f 6//3 16//3 14//3
f 6//4 3//4 2//4
f 3//5 8//5 4//5
f 1//6 8//6 5//6
f 9//7 12//7 10//7
f 6//8 10//8 12//8
f 5//6 9//6 1//6
f 2//1 9//1 10//1
f 13//9 16//9 15//9
f 6//5 13//5 5//5
f 5//10 15//10 11//10
f 11//11 16//11 12//11
f 2//1 3//1 4//1
f 8//2 7//2 6//2
f 6//3 12//3 16//3
f 6//4 7//4 3//4
f 3//5 7//5 8//5
f 1//6 4//6 8//6
f 9//7 11//7 12//7
f 6//4 2//4 10//4
f 5//12 11//12 9//12
f 2//1 1//1 9//1
f 13//9 14//9 16//9
f 6//5 14//5 13//5
f 5//10 13//10 15//10
f 11//11 15//11 16//11
